name pl07_filtered_grf.mot
datacolumns 37
datarows 12
range 1.364000 1.369500
endheader
time	1_ground_force_vx	1_ground_force_vy	1_ground_force_vz	1_ground_force_px	1_ground_force_py	1_ground_force_pz	1_ground_torque_x	1_ground_torque_y	1_ground_torque_z	2_ground_force_vx	2_ground_force_vy	2_ground_force_vz	2_ground_force_px	2_ground_force_py	2_ground_force_pz	2_ground_torque_x	2_ground_torque_y	2_ground_torque_z	3_ground_force_vx	3_ground_force_vy	3_ground_force_vz	3_ground_force_px	3_ground_force_py	3_ground_force_pz	3_ground_torque_x	3_ground_torque_y	3_ground_torque_z	4_ground_force_vx	4_ground_force_vy	4_ground_force_vz	4_ground_force_px	4_ground_force_py	4_ground_force_pz	4_ground_torque_x	4_ground_torque_y	4_ground_torque_z
            1.364000	          -47.917459	          348.123378	           25.557783	            0.169022	            0.000000	            0.224231	           -1.291611	            9.383639	            0.688908	           35.662929	          206.266767	            2.847097	           -0.220129	            0.000000	            0.253931	            0.864091	            4.997719	            0.068983	           -0.216057	           -0.731481	           -0.643813	            0.413520	            1.262749	            1.873207	            0.046005	            0.015278	            0.017567	           -1.533023	           -1.727920	           -2.522494	           -0.353132	            1.255842	            1.900308	            0.031316	           -0.053018	            0.042933
            1.364500	          -47.787617	          347.968196	           25.458256	            0.169000	            0.000000	            0.224272	           -1.290321	            9.395545	            0.687402	           35.676655	          206.187721	            2.764771	           -0.220144	            0.000000	            0.254018	            0.863327	            4.989464	            0.066904	           -0.226851	           -0.730232	           -0.652170	            0.413527	            1.262752	            1.873210	            0.045961	            0.014869	            0.017725	           -1.550797	           -1.716793	           -2.521914	           -0.353127	            1.255842	            1.900310	            0.031687	           -0.052990	            0.042860
            1.365000	          -47.655150	          347.807569	           25.356946	            0.168978	            0.000000	            0.224311	           -1.288959	            9.407375	            0.685846	           35.688548	          206.107245	            2.679346	           -0.220159	            0.000000	            0.254104	            0.862430	            4.980676	            0.064748	           -0.237901	           -0.728878	           -0.660665	            0.413533	            1.262755	            1.873212	            0.045898	            0.014457	            0.017876	           -1.568236	           -1.705794	           -2.521392	           -0.353121	            1.255842	            1.900312	            0.032051	           -0.052956	            0.042798
            1.365500	          -47.520106	          347.641065	           25.253882	            0.168956	            0.000000	            0.224351	           -1.287528	            9.419118	            0.684238	           35.698586	          206.025089	            2.590818	           -0.220173	            0.000000	            0.254192	            0.861401	            4.971353	            0.062516	           -0.249179	           -0.727421	           -0.669285	            0.413538	            1.262758	            1.873215	            0.045816	            0.014041	            0.018020	           -1.585274	           -1.694946	           -2.520929	           -0.353116	            1.255843	            1.900315	            0.032406	           -0.052915	            0.042745
            1.366000	          -47.382539	          347.468249	           25.149098	            0.168934	            0.000000	            0.224390	           -1.286027	            9.430762	            0.682581	           35.706751	          205.941000	            2.499192	           -0.220186	            0.000000	            0.254280	            0.860241	            4.961494	            0.060210	           -0.260658	           -0.725874	           -0.678012	            0.413544	            1.262761	            1.873219	            0.045713	            0.013624	            0.018158	           -1.601909	           -1.684285	           -2.520481	           -0.353111	            1.255844	            1.900318	            0.032750	           -0.052866	            0.042701
            1.366500	          -47.242510	          347.288681	           25.042633	            0.168912	            0.000000	            0.224429	           -1.284458	            9.442295	            0.680874	           35.713031	          205.854720	            2.404479	           -0.220198	            0.000000	            0.254368	            0.858949	            4.951100	            0.057831	           -0.272309	           -0.724245	           -0.686829	            0.413549	            1.262764	            1.873222	            0.045590	            0.013205	            0.018290	           -1.618112	           -1.673842	           -2.520025	           -0.353106	            1.255844	            1.900322	            0.033085	           -0.052811	            0.042668
            1.367000	          -47.100085	          347.101920	           24.934532	            0.168889	            0.000000	            0.224467	           -1.282823	            9.453705	            0.679120	           35.717417	          205.765992	            2.306697	           -0.220209	            0.000000	            0.254457	            0.857529	            4.940175	            0.055381	           -0.284100	           -0.722545	           -0.695724	            0.413554	            1.262767	            1.873226	            0.045448	            0.012784	            0.018414	           -1.633850	           -1.663651	           -2.519538	           -0.353102	            1.255845	            1.900325	            0.033407	           -0.052748	            0.042644
            1.367500	          -46.955336	          346.907522	           24.824843	            0.168867	            0.000000	            0.224505	           -1.281123	            9.464980	            0.677318	           35.719903	          205.674553	            2.205873	           -0.220219	            0.000000	            0.254547	            0.855980	            4.928720	            0.052861	           -0.296000	           -0.720782	           -0.704683	            0.413560	            1.262770	            1.873229	            0.045286	            0.012363	            0.018532	           -1.649096	           -1.653745	           -2.518997	           -0.353097	            1.255846	            1.900329	            0.033716	           -0.052677	            0.042630
            1.368000	          -46.808340	          346.705044	           24.713622	            0.168845	            0.000000	            0.224543	           -1.279361	            9.476108	            0.675470	           35.720488	          205.580143	            2.102038	           -0.220229	            0.000000	            0.254637	            0.854306	            4.916741	            0.050273	           -0.307976	           -0.718964	           -0.713694	            0.413564	            1.262773	            1.873234	            0.045104	            0.011940	            0.018644	           -1.663789	           -1.644150	           -2.518404	           -0.353093	            1.255847	            1.900334	            0.034011	           -0.052599	            0.042626
            1.368500	          -46.659182	          346.494047	           24.600928	            0.168823	            0.000000	            0.224580	           -1.277538	            9.487076	            0.673578	           35.719177	          205.482500	            1.995233	           -0.220238	            0.000000	            0.254727	            0.852508	            4.904244	            0.047620	           -0.319995	           -0.717104	           -0.722741	            0.413568	            1.262776	            1.873239	            0.044903	            0.011518	            0.018749	           -1.677936	           -1.634908	           -2.517712	           -0.353089	            1.255848	            1.900339	            0.034290	           -0.052513	            0.042632
            1.369000	          -46.507952	          346.274091	           24.486827	            0.168800	            0.000000	            0.224617	           -1.275656	            9.497871	            0.671643	           35.715978	          205.381360	            1.885507	           -0.220246	            0.000000	            0.254817	            0.850590	            4.891236	            0.044904	           -0.332024	           -0.715213	           -0.731811	            0.413573	            1.262780	            1.873243	            0.044683	            0.011095	            0.018847	           -1.691512	           -1.626051	           -2.516896	           -0.353084	            1.255848	            1.900343	            0.034553	           -0.052420	            0.042648
            1.369500	          -46.354743	          346.044746	           24.371387	            0.168778	            0.000000	            0.224653	           -1.273717	            9.508481	            0.669667	           35.710903	          205.276465	            1.772913	           -0.220253	            0.000000	            0.254908	            0.848553	            4.877725	            0.042127	           -0.344026	           -0.713301	           -0.740892	            0.413577	            1.262783	            1.873248	            0.044443	            0.010674	            0.018940	           -1.704496	           -1.617614	           -2.515936	           -0.353080	            1.255849	            1.900348	            0.034800	           -0.052317	            0.042675
